# xmcd CD database file
#
# Track frame offsets:
#	150
#	20775
#	37285
#	60407
#	84232
#	126060
#	151087
#
# Disc length: 2509 seconds
#
# Revision: 0
# Processed by: cddbd v1.4PL0 Copyright (c) Steve Scherf et al.
# Submitted via: CDex 1.50
#
DISCID=5009cb07
DTITLE=Adria - The Waking
DYEAR=1900
DGENRE=New Age
TTITLE0=Cradle Tae Grave
TTITLE1=MacCrimmon's Lament
TTITLE2=Cullikhan Beach
TTITLE3=Mary's Dream
TTITLE4=Ballad of the Red Loch
TTITLE5=Fareweel Tae Tarwathie
TTITLE6=Night Hymn
EXTD=
EXTT0=
EXTT1=
EXTT2=
EXTT3=
EXTT4=
EXTT5=
EXTT6=
PLAYORDER=
